<?xml version="1.0" encoding="UTF-8" standalone="no"?>
<!DOCTYPE svg PUBLIC "-//W3C//DTD SVG 1.1//EN"
 "http://www.w3.org/Graphics/SVG/1.1/DTD/svg11.dtd">
<!-- Generated by graphviz version 2.38.0 (20140413.2041)
 -->
<!-- Title: snakemake_dag Pages: 1 -->
<svg width="196pt" height="116pt"
 viewBox="0.00 0.00 195.91 116.00" xmlns="http://www.w3.org/2000/svg" xmlns:xlink="http://www.w3.org/1999/xlink">
<g id="graph0" class="graph" transform="scale(1 1) rotate(0) translate(4 112)">
<title>snakemake_dag</title>
<polygon fill="white" stroke="none" points="-4,4 -4,-112 191.911,-112 191.911,4 -4,4"/>
<!-- 0 -->
<g id="node1" class="node"><title>0</title>
<path fill="none" stroke="#d6d856" stroke-width="2" d="M109.569,-36C109.569,-36 79.5688,-36 79.5688,-36 73.5688,-36 67.5688,-30 67.5688,-24 67.5688,-24 67.5688,-12 67.5688,-12 67.5688,-6 73.5688,-0 79.5688,-0 79.5688,-0 109.569,-0 109.569,-0 115.569,-0 121.569,-6 121.569,-12 121.569,-12 121.569,-24 121.569,-24 121.569,-30 115.569,-36 109.569,-36"/>
<text text-anchor="middle" x="94.5688" y="-15" font-family="sans" font-size="10.00">all</text>
</g>
<!-- 1 -->
<g id="node2" class="node"><title>1</title>
<path fill="none" stroke="#56d8d8" stroke-width="2" d="M75.2067,-108C75.2067,-108 11.931,-108 11.931,-108 5.93104,-108 -0.0689566,-102 -0.0689566,-96 -0.0689566,-96 -0.0689566,-84 -0.0689566,-84 -0.0689566,-78 5.93104,-72 11.931,-72 11.931,-72 75.2067,-72 75.2067,-72 81.2067,-72 87.2067,-78 87.2067,-84 87.2067,-84 87.2067,-96 87.2067,-96 87.2067,-102 81.2067,-108 75.2067,-108"/>
<text text-anchor="middle" x="43.5688" y="-92" font-family="sans" font-size="10.00">build_seurat</text>
<text text-anchor="middle" x="43.5688" y="-82" font-family="sans" font-size="10.00">sample_id: HET</text>
</g>
<!-- 1&#45;&gt;0 -->
<g id="edge1" class="edge"><title>1&#45;&gt;0</title>
<path fill="none" stroke="grey" stroke-width="2" d="M56.1756,-71.6966C62.1663,-63.4741 69.4453,-53.4832 76.0481,-44.4207"/>
<polygon fill="grey" stroke="grey" stroke-width="2" points="79.0473,-46.2477 82.1071,-36.1043 73.3897,-42.1257 79.0473,-46.2477"/>
</g>
<!-- 2 -->
<g id="node3" class="node"><title>2</title>
<path fill="none" stroke="#56d8d8" stroke-width="2" d="M175.754,-108C175.754,-108 117.384,-108 117.384,-108 111.384,-108 105.384,-102 105.384,-96 105.384,-96 105.384,-84 105.384,-84 105.384,-78 111.384,-72 117.384,-72 117.384,-72 175.754,-72 175.754,-72 181.754,-72 187.754,-78 187.754,-84 187.754,-84 187.754,-96 187.754,-96 187.754,-102 181.754,-108 175.754,-108"/>
<text text-anchor="middle" x="146.569" y="-92" font-family="sans" font-size="10.00">build_seurat</text>
<text text-anchor="middle" x="146.569" y="-82" font-family="sans" font-size="10.00">sample_id: WT</text>
</g>
<!-- 2&#45;&gt;0 -->
<g id="edge2" class="edge"><title>2&#45;&gt;0</title>
<path fill="none" stroke="grey" stroke-width="2" d="M133.715,-71.6966C127.544,-63.3893 120.032,-53.2771 113.245,-44.1407"/>
<polygon fill="grey" stroke="grey" stroke-width="2" points="116.048,-42.0446 107.275,-36.1043 110.429,-46.2189 116.048,-42.0446"/>
</g>
</g>
</svg>
